<svg width="32" height="32" viewBox="0 0 32 32" fill="none" xmlns="http://www.w3.org/2000/svg">
<path d="M14.2249 14.5503C13.856 14.5503 13.4954 14.4409 13.1887 14.236C12.882 14.0311 12.643 13.7398 12.5018 13.399C12.3607 13.0582 12.3237 12.6832 12.3957 12.3215C12.4677 11.9597 12.6453 11.6274 12.9061 11.3666C13.1669 11.1057 13.4992 10.9281 13.861 10.8561C14.2228 10.7842 14.5978 10.8211 14.9386 10.9623C15.2794 11.1034 15.5706 11.3425 15.7756 11.6492C15.9805 11.9559 16.0899 12.3165 16.0899 12.6853C16.0892 13.1797 15.8925 13.6537 15.5429 14.0033C15.1933 14.3529 14.7193 14.5497 14.2249 14.5503ZM14.2249 11.8198C14.0538 11.8198 13.8865 11.8705 13.7443 11.9656C13.602 12.0606 13.4912 12.1957 13.4257 12.3538C13.3602 12.5118 13.3431 12.6858 13.3765 12.8536C13.4099 13.0214 13.4922 13.1755 13.6132 13.2965C13.7342 13.4174 13.8883 13.4998 14.0561 13.5332C14.2239 13.5666 14.3978 13.5494 14.5559 13.484C14.7139 13.4185 14.849 13.3076 14.9441 13.1654C15.0391 13.0231 15.0899 12.8559 15.0899 12.6848C15.0895 12.4555 14.9982 12.2357 14.8361 12.0736C14.6739 11.9115 14.4542 11.8202 14.2249 11.8198ZM19.2959 14.5503C18.927 14.5503 18.5664 14.4409 18.2597 14.236C17.953 14.0311 17.714 13.7398 17.5728 13.399C17.4317 13.0582 17.3947 12.6832 17.4667 12.3215C17.5387 11.9597 17.7163 11.6274 17.9771 11.3666C18.2379 11.1057 18.5702 10.9281 18.932 10.8561C19.2938 10.7842 19.6688 10.8211 20.0096 10.9623C20.3504 11.1034 20.6416 11.3425 20.8466 11.6492C21.0515 11.9559 21.1609 12.3165 21.1609 12.6853C21.1602 13.1797 20.9635 13.6537 20.6139 14.0033C20.2643 14.3529 19.7903 14.5497 19.2959 14.5503ZM19.2959 11.8198C19.1248 11.8198 18.9575 11.8705 18.8153 11.9656C18.673 12.0606 18.5622 12.1957 18.4967 12.3538C18.4312 12.5118 18.4141 12.6858 18.4475 12.8536C18.4809 13.0214 18.5632 13.1755 18.6842 13.2965C18.8052 13.4174 18.9593 13.4998 19.1271 13.5332C19.2949 13.5666 19.4688 13.5494 19.6269 13.484C19.7849 13.4185 19.92 13.3076 20.0151 13.1654C20.1101 13.0231 20.1609 12.8559 20.1609 12.6848C20.1605 12.4555 20.0692 12.2357 19.9071 12.0736C19.7449 11.9115 19.5252 11.8202 19.2959 11.8198ZM24.3664 14.5503C23.9975 14.5503 23.6369 14.4409 23.3302 14.236C23.0235 14.0311 22.7845 13.7398 22.6433 13.399C22.5022 13.0582 22.4652 12.6832 22.5372 12.3215C22.6092 11.9597 22.7868 11.6274 23.0476 11.3666C23.3084 11.1057 23.6407 10.9281 24.0025 10.8561C24.3643 10.7842 24.7393 10.8211 25.0801 10.9623C25.4209 11.1034 25.7121 11.3425 25.9171 11.6492C26.122 11.9559 26.2314 12.3165 26.2314 12.6853C26.2307 13.1797 26.034 13.6537 25.6844 14.0033C25.3348 14.3529 24.8608 14.5497 24.3664 14.5503ZM24.3664 11.8198C24.1953 11.8198 24.028 11.8705 23.8858 11.9656C23.7435 12.0606 23.6327 12.1957 23.5672 12.3538C23.5017 12.5118 23.4846 12.6858 23.518 12.8536C23.5514 13.0214 23.6337 13.1755 23.7547 13.2965C23.8757 13.4174 24.0298 13.4998 24.1976 13.5332C24.3654 13.5666 24.5393 13.5494 24.6974 13.484C24.8554 13.4185 24.9905 13.3076 25.0856 13.1654C25.1806 13.0231 25.2314 12.8559 25.2314 12.6848C25.231 12.4555 25.1397 12.2357 24.9776 12.0736C24.8154 11.9115 24.5957 11.8202 24.3664 11.8198Z" fill="#2980B9"/>
<path d="M27.4595 17.8243C28.217 17.17 28.8289 16.3642 29.2557 15.4587C29.6825 14.5533 29.9148 13.5685 29.9375 12.5678C29.9375 8.05481 25.1635 4.38281 19.296 4.38281C14.642 4.38281 10.686 6.69681 9.2445 9.90431C4.94 11.0428 2.0625 14.1248 2.0625 17.6383C2.08513 18.6391 2.31735 19.624 2.74417 20.5295C3.17099 21.435 3.78294 22.2409 4.5405 22.8953C4.6355 23.2948 4.2315 25.1003 3.0935 26.4673C3.00796 26.5696 2.95343 26.6942 2.93631 26.8265C2.9192 26.9587 2.94022 27.0931 2.9969 27.2138C3.05357 27.3345 3.14355 27.4366 3.25624 27.5079C3.36893 27.5792 3.49965 27.6168 3.633 27.6163C3.6651 27.6165 3.69717 27.6145 3.729 27.6103C5.69449 27.3958 7.57187 26.6797 9.181 25.5308C9.2485 25.4833 9.306 25.4423 9.353 25.4103C10.4485 25.6867 11.5742 25.8254 12.704 25.8233C17.2425 25.8233 21.216 23.6508 22.7215 20.3918L22.819 20.4598C24.4281 21.6089 26.3055 22.3251 28.271 22.5398C28.3028 22.544 28.3349 22.546 28.367 22.5458C28.5004 22.5464 28.6312 22.5088 28.7439 22.4376C28.8567 22.3663 28.9468 22.2643 29.0035 22.1436C29.0602 22.0228 29.0813 21.8884 29.0642 21.7561C29.0471 21.6238 28.9926 21.4992 28.907 21.3968C27.7685 20.0298 27.3645 18.2238 27.4595 17.8243ZM12.7045 24.8233C11.604 24.8258 10.508 24.6838 9.4445 24.4008C9.1605 24.3238 8.952 24.4698 8.6075 24.7118C7.32864 25.6292 5.85728 26.2426 4.3055 26.5053C5.3145 24.9693 5.9385 22.8128 5.257 22.1953C4.59109 21.633 4.05141 20.9364 3.67324 20.1511C3.29508 19.3658 3.08696 18.5096 3.0625 17.6383C3.0625 14.7633 5.3515 12.2033 8.8425 11.0633C8.72002 11.5557 8.6569 12.0609 8.6545 12.5683C8.6545 17.0808 13.428 20.7523 19.296 20.7523C20.0326 20.7509 20.768 20.6906 21.495 20.5718C19.9545 23.1118 16.4995 24.8233 12.7045 24.8233ZM23.3925 19.6413C23.2011 19.4645 22.9611 19.349 22.7035 19.3098C22.6533 19.31 22.6034 19.3167 22.555 19.3298C21.4919 19.6128 20.3962 19.7548 19.296 19.7523C13.9795 19.7523 9.6545 16.5298 9.6545 12.5678C9.6545 8.60581 13.9795 5.38281 19.296 5.38281C24.6125 5.38281 28.9375 8.60631 28.9375 12.5678C28.913 13.4391 28.7049 14.2954 28.3266 15.0807C27.9484 15.866 27.4085 16.5626 26.7425 17.1248C26.0615 17.7418 26.685 19.8983 27.695 21.4348C26.143 21.1722 24.6715 20.5588 23.3925 19.6413Z" fill="#2980B9"/>
</svg>
