<svg width="24" height="25" viewBox="0 0 24 25" fill="none" xmlns="http://www.w3.org/2000/svg">
<path d="M8 15.8711V17.8711M12 11.8711V17.8711M16 7.87109V17.8711M7.8 21.8711H16.2C17.8802 21.8711 18.7202 21.8711 19.362 21.5441C19.9265 21.2565 20.3854 20.7976 20.673 20.2331C21 19.5913 21 18.7513 21 17.0711V8.67109C21 6.99094 21 6.15086 20.673 5.50912C20.3854 4.94464 19.9265 4.48569 19.362 4.19807C18.7202 3.87109 17.8802 3.87109 16.2 3.87109H7.8C6.11984 3.87109 5.27976 3.87109 4.63803 4.19807C4.07354 4.48569 3.6146 4.94464 3.32698 5.50912C3 6.15086 3 6.99094 3 8.67109V17.0711C3 18.7513 3 19.5913 3.32698 20.2331C3.6146 20.7976 4.07354 21.2565 4.63803 21.5441C5.27976 21.8711 6.11984 21.8711 7.8 21.8711Z" stroke="#2980B9" stroke-width="1.5" stroke-linecap="round" stroke-linejoin="round"/>
</svg>
