<svg width="20" height="20" viewBox="0 0 20 20" fill="none" xmlns="http://www.w3.org/2000/svg">
<path d="M9.99984 10.833C10.4601 10.833 10.8332 10.4599 10.8332 9.99967C10.8332 9.53944 10.4601 9.16634 9.99984 9.16634C9.5396 9.16634 9.1665 9.53944 9.1665 9.99967C9.1665 10.4599 9.5396 10.833 9.99984 10.833Z" stroke="#98A2B3" stroke-width="1.66667" stroke-linecap="round" stroke-linejoin="round"/>
<path d="M9.99984 4.99967C10.4601 4.99967 10.8332 4.62658 10.8332 4.16634C10.8332 3.7061 10.4601 3.33301 9.99984 3.33301C9.5396 3.33301 9.1665 3.7061 9.1665 4.16634C9.1665 4.62658 9.5396 4.99967 9.99984 4.99967Z" stroke="#98A2B3" stroke-width="1.66667" stroke-linecap="round" stroke-linejoin="round"/>
<path d="M9.99984 16.6663C10.4601 16.6663 10.8332 16.2932 10.8332 15.833C10.8332 15.3728 10.4601 14.9997 9.99984 14.9997C9.5396 14.9997 9.1665 15.3728 9.1665 15.833C9.1665 16.2932 9.5396 16.6663 9.99984 16.6663Z" stroke="#98A2B3" stroke-width="1.66667" stroke-linecap="round" stroke-linejoin="round"/>
</svg>
