<svg width="18" height="20" viewBox="0 0 18 20" fill="none" xmlns="http://www.w3.org/2000/svg">
<path d="M6.79496 17.5003C7.38257 18.019 8.15444 18.3337 8.99981 18.3337C9.84518 18.3337 10.6171 18.019 11.2047 17.5003M13.9998 6.66699C13.9998 5.34091 13.473 4.06914 12.5353 3.13146C11.5977 2.19378 10.3259 1.66699 8.99981 1.66699C7.67373 1.66699 6.40196 2.19378 5.46428 3.13146C4.5266 4.06914 3.99981 5.34091 3.99981 6.66699C3.99981 9.24215 3.3502 11.0053 2.62453 12.1715C2.01242 13.1552 1.70636 13.6471 1.71758 13.7843C1.73001 13.9362 1.7622 13.9942 1.88463 14.085C1.99519 14.167 2.49364 14.167 3.49052 14.167H14.5091C15.506 14.167 16.0044 14.167 16.115 14.085C16.2374 13.9942 16.2696 13.9362 16.282 13.7843C16.2933 13.6471 15.9872 13.1552 15.3751 12.1715C14.6494 11.0053 13.9998 9.24215 13.9998 6.66699Z" stroke="#667085" stroke-width="1.66667" stroke-linecap="round" stroke-linejoin="round"/>
</svg>
