<svg width="28" height="32" viewBox="0 0 28 32" fill="none" xmlns="http://www.w3.org/2000/svg">
<path d="M18.5776 2.06452L18.5786 3.09677C18.1363 3.09729 17.6971 3.24394 17.3415 3.51058C16.3639 4.24271 15.1545 4.64516 13.9355 4.64516C12.7165 4.64516 11.5061 4.24142 10.527 3.50903C10.1734 3.24342 9.73406 3.09729 9.28929 3.09677L9.29032 2.06452C9.95716 2.06503 10.6161 2.28477 11.1465 2.68297C11.9468 3.28194 12.9377 3.6129 13.9355 3.6129C14.9332 3.6129 15.9232 3.28303 16.7226 2.68452C17.2548 2.28555 17.9138 2.06503 18.5776 2.06452ZM22.2281 1.50903C23.2042 2.48419 23.7419 3.78129 23.7419 5.16084V5.56813C23.7419 6.75613 23.3274 7.9169 22.5756 8.83626C21.7656 9.82568 21.0796 10.9199 20.5358 12.0888L20.3969 12.3871H17.1772L17.6933 14.4516H16V16.5161H11.871V14.4516H10.1777L10.6938 12.3871H7.47406L7.33516 12.0887C6.79129 10.9199 6.10535 9.82561 5.29535 8.83619C4.54361 7.91677 4.12903 6.75606 4.12903 5.56806V5.16077C4.12903 3.78174 4.66632 2.48465 5.64194 1.51006C6.61664 0.536323 7.91226 0 9.28974 0H9.29381C10.4009 0.000516129 11.4982 0.366968 12.385 1.03123C13.2764 1.69858 14.596 1.69761 15.4843 1.03226C16.3723 0.367419 17.469 0.00103226 18.5756 0H18.5817C19.9586 0 21.2538 0.535806 22.2281 1.50903H22.2281ZM14.9677 14.4516H12.9032V15.4839H14.9677V14.4516ZM16.1132 12.3871H11.7578L11.4997 13.4194H16.3712L16.1132 12.3871ZM22.7097 5.16077C22.7097 4.05671 22.2797 3.01994 21.4987 2.23942C20.719 1.46064 19.6832 1.03226 18.5817 1.03226H18.5766C17.6913 1.03329 16.8135 1.32581 16.1048 1.8571C14.8579 2.79181 13.0106 2.78955 11.7672 1.8591C11.0565 1.32535 10.1787 1.03277 9.29284 1.03226H9.28981C8.18723 1.03226 7.15148 1.46116 6.37174 2.24045C5.59123 3.02045 5.16129 4.05723 5.16129 5.16077V5.56806C5.16129 6.51864 5.49271 7.44735 6.09452 8.18168C6.88987 9.15348 7.5731 10.2192 8.12903 11.3543H19.7419C20.2979 10.2192 20.9811 9.15303 21.7765 8.18219C22.3783 7.44735 22.7097 6.51871 22.7097 5.568V5.16077ZM27.8168 30.221L27.871 30.3299V32H0V30.3299L0.0541935 30.221C2.32058 25.6888 6.82735 22.8437 11.871 22.7215V20.6452C11.3017 20.6452 10.8387 20.1822 10.8387 19.6129V18.5806C10.8387 18.0114 11.3017 17.5484 11.871 17.5484H16C16.5693 17.5484 17.0323 18.0114 17.0323 18.5806V19.6129C17.0323 20.1822 16.5693 20.6452 16 20.6452V22.7215C21.0436 22.8437 25.5504 25.6888 27.8168 30.221ZM12.9032 23.7419H14.9677V22.7097H12.9032V23.7419ZM14.9677 24.7742H12.9032V25.8064H14.9677V24.7742ZM12.9683 26.8387C13.0761 27.5671 13.3218 28.2674 13.7031 28.9032H14.1674C14.5486 28.2674 14.7944 27.5671 14.9022 26.8387H12.9683ZM11.871 19.6129H16.0005L16 18.5806H11.871V19.6129ZM12.9032 20.6452V21.6774H14.9677V20.6452H12.9032ZM26.8387 30.5743C24.7314 26.4574 20.6101 23.8745 16 23.7533V26.0098C16 27.3296 15.6129 28.6074 14.881 29.7054L14.7278 29.9355H13.1432L12.99 29.7059C12.2581 28.6081 11.871 27.3297 11.871 26.0104V23.7538C7.26084 23.8745 3.13961 26.4574 1.03226 30.5748V30.9677H26.8387V30.5743ZM23.7419 12.9032V20.7679L22.0739 18.7664L21.281 19.4277L24.2581 22.9997L27.2352 19.4272L26.4423 18.7659L24.7742 20.7679V12.9032H23.7419ZM3.09677 12.9032V20.7679L1.42871 18.7665L0.635806 19.4277L3.6129 22.9997L6.59 19.4272L5.7971 18.7659L4.12903 20.7679V12.9032H3.09677Z" fill="url(#paint0_linear_38_10189)"/>
<defs>
<linearGradient id="paint0_linear_38_10189" x1="13.9355" y1="32" x2="13.9355" y2="0" gradientUnits="userSpaceOnUse">
<stop stop-color="#9F2FFF"/>
<stop offset="1" stop-color="#0BB1D3"/>
</linearGradient>
</defs>
</svg>
